<svg width="22" height="22" viewBox="0 0 22 22" fill="none" xmlns="http://www.w3.org/2000/svg">
    <path d="M19.4425 14.5658C18.8593 15.9449 17.9472 17.1601 16.7859 18.1053C15.6246 19.0505 14.2494 19.6968 12.7806 19.9877C11.3118 20.2786 9.79407 20.2052 8.36015 19.7741C6.92623 19.3429 5.61975 18.5671 4.55495 17.5144C3.49014 16.4617 2.69943 15.1641 2.25193 13.7352C1.80443 12.3063 1.71378 10.7896 1.98789 9.31753C2.26201 7.8455 2.89255 6.46302 3.82439 5.29098C4.75623 4.11893 5.96099 3.19299 7.33335 2.59412" stroke="#838383" stroke-width="1.5" stroke-linecap="round" stroke-linejoin="round"/>
    <path d="M20.1667 11C20.1667 9.79626 19.9296 8.60426 19.4689 7.49211C19.0082 6.37996 18.333 5.36943 17.4818 4.51823C16.6306 3.66702 15.6201 2.99181 14.5079 2.53115C13.3958 2.07048 12.2038 1.83337 11 1.83337V11H20.1667Z" stroke="#838383" stroke-width="1.5" stroke-linecap="round" stroke-linejoin="round"/>
</svg>
